<?xml version="1.0" encoding="utf-8"?>
<svg version="1.1" id="Layer_1" x="0px" y="0px" width="189.984px" height="33.004px" viewBox="0.001 -2.142 247.839 35.183" enable-background="new 0 0 189.984 33.004" xmlns="http://www.w3.org/2000/svg">
  <defs>
    <path id="path-0" d="M 62.563169142078735 11.166531411666865 L 102.45006636056026 30.41265664296214" style="fill: none;"/>
    <path id="path-1" d="M 56.597 16.826 C 56.958 18.465 57.821 20.656 57.821 20.956 C 59.648 22.225 62.629 21.994 64.399 21.109 C 67.201 18.705 71.683 17.841 69.753 14.532 C 68.743 12.802 69.954 15.565 67.917 12.849 C 64.424 9.924 60.694 7.512 57.668 9.025 L 57.362 9.178 C 56.682 10.539 56.597 12.561 56.597 14.073" style="fill: none;"/>
  </defs>
  <path d="M47.748,10.854L37.359,1.234c-0.301-0.305-2.402-2.218-6.165-0.576C27.125,2.434,3.5,11.708,3.263,11.801&#10;&#9;c-0.094,0.036-0.177,0.088-0.25,0.151c-0.242,0.135-0.485,0.296-0.73,0.486c-2.669,2.076-3.01,5.295-0.956,9.067&#10;&#9;c2.771,5.086,9.521,10.825,13.126,11.399c0.231,0.036,0.452,0.052,0.656,0.045c0.052,0.02,0.106,0.034,0.162,0.044&#10;&#9;c0.141,0.022,0.288,0.007,0.428-0.049l29.266-11.843c0.105-0.042,0.2-0.106,0.279-0.188c0.064-0.065,1.558-1.635,1.229-3.716&#10;&#9;c-0.204-1.289-1.042-2.439-2.497-3.428l3.526-1.479c0.268-0.113,0.462-0.357,0.512-0.648C48.063,11.35,47.963,11.054,47.748,10.854z&#10;&#9; M2.808,20.669c-1.643-3.017-1.473-5.325,0.501-6.861c2.312-1.796,4.214,0.425,4.421,0.681c0.017,0.021,0.036,0.042,0.054,0.062&#10;&#9;l0.929,0.965l-3.83,1.344c-0.399,0.14-0.627,0.566-0.525,0.983c0.049,0.203,1.284,5,8.162,8.518&#10;&#9;c1.729,0.885,3.586,1.913,3.721,2.925c0.082,0.605-0.459,1.335-1.04,1.931c-0.028,0-0.058,0.003-0.086,0.006&#10;&#9;C12.965,31.489,5.803,26.167,2.808,20.669z M42.089,14.568c1.645,0.857,2.603,1.854,2.771,2.881c0.165,1.004-0.438,1.88-0.68,2.184&#10;&#9;L17.727,30.339c0.145-0.434,0.188-0.858,0.132-1.277c-0.242-1.815-2.229-2.969-4.605-4.184c-4.651-2.379-6.442-5.383-7.044-6.728&#10;&#9;l3.77-1.324l7.295,7.568c0.241,0.25,0.608,0.327,0.927,0.193l23.88-10.025C42.084,14.565,42.087,14.567,42.089,14.568z&#10;&#9; M18.083,22.773l-9.061-9.401c-0.365-0.45-0.921-0.962-1.612-1.354c6.815-2.682,21.278-8.391,24.451-9.775&#10;&#9;c2.847-1.243,4.241,0.15,4.291,0.201c0.017,0.018,0.033,0.035,0.051,0.051l9.416,8.719L18.083,22.773z" style="fill: rgb(255, 255, 255);"/>
  <path d="M32.765,13.608L26.01,6.652l7.657-3.197l7.05,6.8L32.765,13.608z" style="fill: rgb(255, 255, 255);"/>
  <path d="M29.064,13.237c0.174,0.442-0.038,0.944-0.472,1.121l-10.634,4.323c-0.434,0.176-0.927-0.039-1.101-0.48&#10;&#9;c-0.173-0.442,0.039-0.944,0.472-1.121l10.634-4.323c0.146-0.06,0.299-0.075,0.444-0.052C28.693,12.75,28.949,12.944,29.064,13.237z&#10;&#9;" style="fill: rgb(255, 255, 255);"/>
  <path d="M24.939,10.468l-10.634,4.324c-0.435,0.177-0.926-0.039-1.101-0.481c-0.174-0.441,0.039-0.943,0.473-1.121&#10;&#9;L24.31,8.868c0.146-0.06,0.3-0.075,0.445-0.052c0.286,0.045,0.541,0.239,0.656,0.532C25.585,9.79,25.373,10.292,24.939,10.468z" style="fill: rgb(255, 255, 255);"/>
  <text style="fill: rgb(255, 255, 255); font-family: Arial, sans-serif; font-size: 28px; font-weight: 700; text-transform: uppercase; white-space: pre;" transform="matrix(0.670746, 0, 0, 0.76092, 15.402493, 4.375556)" x="48.026" y="23.557" dx="0.612" dy="0.612">Ohafia news 24hrs</text>
</svg>